<?xml version="1.0" encoding="utf-8"?>
<!-- Generator: Adobe Illustrator 22.0.1, SVG Export Plug-In . SVG Version: 6.00 Build 0)  -->
<svg version="1.1" id="Capa_1" xmlns="http://www.w3.org/2000/svg" xmlns:xlink="http://www.w3.org/1999/xlink" x="0px" y="0px"
	 viewBox="0 0 512 512" style="enable-background:new 0 0 512 512;" xml:space="preserve">
<style type="text/css">
	.st0{fill:#FFFFFF;}
</style>
<g>
	<g>
		<path class="st0" d="M262.9,0C122.6,0,48,89.9,48,188c0,45.5,25.4,102.2,66.1,120.2c6.2,2.8,9.5,1.6,10.9-4.1
			c1.2-4.4,6.6-25.3,9.2-35.2c0.8-3.2,0.4-5.9-2.2-8.9c-13.5-15.6-24.2-44.1-24.2-70.8c0-68.4,54.4-134.8,146.9-134.8
			c80,0,136,52,136,126.3c0,84-44.4,142.1-102.2,142.1c-32,0-55.8-25.1-48.2-56.1c9.1-37,27-76.7,27-103.4
			c0-23.9-13.5-43.7-41.1-43.7c-32.5,0-58.9,32.2-58.9,75.5c0,27.5,9.7,46,9.7,46s-32.2,130-38.2,154.3
			c-10.1,41.1,1.4,107.7,2.4,113.4c0.6,3.2,4.2,4.2,6.1,1.6c3.2-4.2,42.1-59.7,53-99.8c4-14.6,20.3-73.9,20.3-73.9
			c10.7,19.4,41.7,35.6,74.6,35.6c98,0,168.9-86.2,168.9-193.1C463.6,76.7,375.9,0,262.9,0z"/>
	</g>
</g>
</svg>
